<?xml version="1.0" encoding="UTF-8"?>
<svg id="Layer_2" xmlns="http://www.w3.org/2000/svg" viewBox="0 0 530.5 728.5">
  <defs>
    <style>
      .cls-1 {
        fill: #d6d2c8;
        stroke: #000;
        stroke-miterlimit: 10;
        stroke-width: 2px;
      }
    </style>
  </defs>
  <g id="Layer_1-2" data-name="Layer_1">
    <path class="cls-1" d="M521.44,27.5h-17.7c-2.34,0-4.48-1.35-5.47-3.48-2.54-5.44-6.2-13.42-7.24-16.52-1.64-4.88-6.18-6.51-6.18-6.51h-121.35c-5.72,0-6.54,5.69-6.54,5.69l-7.28,17.13c-.95,2.23-3.14,3.68-5.56,3.68H8c-3.87,0-7,3.13-7,7v684.94c0,4.45,3.61,8.06,8.06,8.06h512.37c4.45,0,8.06-3.61,8.06-8.06V35.56c0-4.45-3.61-8.06-8.06-8.06Z"/>
  </g>
</svg>