<?xml version="1.0" encoding="UTF-8"?>
<svg id="Layer_2" xmlns="http://www.w3.org/2000/svg" viewBox="0 0 530.5 728.5">
  <defs>
    <style>
      .cls-1 {
        fill: #d6d2c8;
        stroke: #000;
        stroke-miterlimit: 10;
        stroke-width: 2px;
      }
    </style>
  </defs>
  <g id="Layer_1-2" data-name="Layer_1">
    <path class="cls-1" d="M521.44,27.5h-171c-2.16,0-4.12-1.24-5.03-3.2-2.55-5.44-6.32-13.65-7.37-16.8-1.64-4.88-6.18-6.51-6.18-6.51h-121.35c-5.72,0-6.54,5.69-6.54,5.69l-7.41,17.42c-.87,2.05-2.89,3.38-5.11,3.38H8c-3.87,0-7,3.13-7,7v684.94c0,4.45,3.61,8.06,8.06,8.06h512.37c4.45,0,8.06-3.61,8.06-8.06V35.56c0-4.45-3.61-8.06-8.06-8.06Z"/>
  </g>
</svg>